<svg width="40" height="40" viewBox="0 0 40 40" fill="none" xmlns="http://www.w3.org/2000/svg">
<circle cx="20" cy="20" r="20" fill="#E2F2FF"/>
<g clip-path="url(#clip0_813_2763)">
<path d="M11.25 19.9778V27.4778C11.25 28.1678 11.8113 28.7278 12.5 28.7278H18.75V19.9778H11.25Z" fill="#2C80E3"/>
<path d="M28.7503 14.9759H24.7953C25.079 14.7821 25.3228 14.5896 25.4928 14.4171C26.5016 13.4033 26.5016 11.7533 25.4928 10.7396C24.5128 9.75221 22.8053 9.75471 21.8264 10.7396C21.2838 11.2835 19.8463 13.4972 20.0451 14.9757H19.9551C20.1527 13.4969 18.7152 11.2832 18.1739 10.7396C17.1939 9.75471 15.4864 9.75471 14.5075 10.7396C13.4999 11.7533 13.4999 13.4033 14.5062 14.4171C14.6775 14.5896 14.9213 14.7821 15.205 14.9759H11.25C10.5612 14.9759 10 15.5371 10 16.2259V18.1009C10 18.4459 10.28 18.7259 10.625 18.7259H18.75V16.2259H21.25V18.7259H29.375C29.72 18.7259 30 18.4459 30 18.1009V16.2259C30 15.5371 29.4403 14.9759 28.7503 14.9759ZM18.6763 14.9346C18.6763 14.9346 18.6239 14.9759 18.445 14.9759C17.5813 14.9759 15.9325 14.0784 15.3938 13.5359C14.8701 13.0084 14.8701 12.1483 15.3938 11.6208C15.6476 11.3658 15.9838 11.2259 16.3414 11.2259C16.6977 11.2259 17.0339 11.366 17.2876 11.6208C18.1301 12.4683 18.9676 14.6334 18.6763 14.9346ZM21.5538 14.9759C21.3764 14.9759 21.3238 14.9346 21.3238 14.9346C21.0325 14.6334 21.8701 12.4683 22.7126 11.6208C23.2164 11.1121 24.0977 11.1096 24.6063 11.6208C25.1313 12.1483 25.1313 13.0084 24.6063 13.5359C24.0677 14.0783 22.419 14.9759 21.5538 14.9759Z" fill="#2C80E3"/>
<path d="M21.25 19.9778V28.7278H27.5C28.19 28.7278 28.75 28.1678 28.75 27.4778V19.9778H21.25Z" fill="#2C80E3"/>
</g>
<defs>
<clipPath id="clip0_813_2763">
<rect width="24" height="24" fill="white" transform="translate(8 8)"/>
</clipPath>
</defs>
</svg>
